<svg id="Capa_1" data-name="Capa 1" xmlns="http://www.w3.org/2000/svg" viewBox="0 0 75.01 96.59"><defs><style>.cls-1{fill:#078d92;}.cls-2{fill:#fff;}</style></defs><title>LOGO ONDAS DE VIDA</title><path class="cls-1" d="M343.24,347.75v5.54c-.58-.05-1.13-.11-1.68-.12a19.47,19.47,0,0,0-12.69,4.55,39.06,39.06,0,0,0-9.53,11.56,161.47,161.47,0,0,1-8.81,14.16,53.79,53.79,0,0,1-13,13.28,31.2,31.2,0,0,1-13.69,5.37,36.65,36.65,0,0,1-15.15-1.33c-.18-.05-.44-.29-.44-.45,0-1.57,0-3.14,0-4.75,9.77,4.45,19.1,3.67,28.15-1.93-5.51.34-10.94.7-16.28-.81a23,23,0,0,1-11.54-7.38,1.32,1.32,0,0,1-.32-.77q0-18.36,0-36.72a1.62,1.62,0,0,1,0-.2h9.33c-.95,1.17-2,2.28-2.85,3.5a20.7,20.7,0,0,0-4,14.16,23.81,23.81,0,0,0,4.14,11.42,22.8,22.8,0,0,0,8.22,7.75,7.2,7.2,0,0,0,3.77,1l-.31-.29a28.24,28.24,0,0,1-5.51-6.53,21.23,21.23,0,0,1-3.37-14.15,24.18,24.18,0,0,1,7-14.08c1-1,2.17-1.88,3.26-2.82Z" transform="translate(-268.26 -347.75)"/><path class="cls-1" d="M343.24,371.92v35.95h-28.8c.07-.08.11-.15.17-.18a32.35,32.35,0,0,0,12.9-10.89c3.25-4.42,5.93-9.19,8.74-13.88,2.11-3.53,4.37-7,6.57-10.45A6.85,6.85,0,0,1,343.24,371.92Z" transform="translate(-268.26 -347.75)"/><path class="cls-1" d="M289.17,407.87c1.54-.31,3.09-.57,4.61-.95a40.52,40.52,0,0,0,16.36-8.55,76.37,76.37,0,0,0,13.52-15.3c3.58-5.16,7-10.41,10.6-15.58a48.69,48.69,0,0,1,7.59-8.93c.42-.37.85-.72,1.38-1.16,0,.3,0,.47,0,.64,0,2.5,0,5,0,7.5a1.08,1.08,0,0,1-.28.76c-4.05,3.34-6.93,7.59-9.6,12s-5.34,8.92-8.19,13.27A41.18,41.18,0,0,1,314,403.33a40,40,0,0,1-9.4,4.5,1.55,1.55,0,0,1-.53.08H289.16Z" transform="translate(-268.26 -347.75)"/><path class="cls-2" d="M287.74,411.63h3.89L296,426.39l.14,0V411.65h3.4v23c-1.13,0-2.26,0-3.37,0-.18,0-.42-.35-.49-.58-1.11-3.39-2.19-6.8-3.28-10.2a34.22,34.22,0,0,0-1.17-3.25v14h-3.48Z" transform="translate(-268.26 -347.75)"/><path class="cls-2" d="M300.73,411.62c2.07,0,4.1-.08,6.13,0,2.47.11,4.66,2.61,4.68,5.27,0,4.12,0,8.25,0,12.37a5.41,5.41,0,0,1-5.42,5.34c-1.78-.1-3.56,0-5.39,0Zm3.49,19.47h1.39c1.86,0,2.56-.71,2.56-2.59V417.62a4.25,4.25,0,0,0-.07-.8,1.82,1.82,0,0,0-1.57-1.63,22.17,22.17,0,0,0-2.31,0Z" transform="translate(-268.26 -347.75)"/><path class="cls-2" d="M286.57,423c0,2.23.07,4.47,0,6.7a5.25,5.25,0,0,1-5.25,4.88,5.36,5.36,0,0,1-5.46-4,7.21,7.21,0,0,1-.19-1.6c0-4,0-7.94,0-11.91a5.47,5.47,0,1,1,10.94-.19c0,2.05,0,4.1,0,6.15Zm-3.62.05v-6a1.88,1.88,0,0,0-1.93-2,1.91,1.91,0,0,0-1.91,2.07V429a1.92,1.92,0,0,0,2,2.08,1.88,1.88,0,0,0,1.87-2Z" transform="translate(-268.26 -347.75)"/><path class="cls-2" d="M311.93,434.56l3.86-22.92h4.8l3.8,22.91h-3.68c-.24-1.58-.51-3.15-.71-4.73-.06-.53-.26-.66-.76-.64-.92,0-1.84,0-2.82,0l-.86,5.37Zm7.48-8.79-1.19-8.24h-.11l-1.17,8.23Z" transform="translate(-268.26 -347.75)"/><path class="cls-2" d="M324.31,428.26l3.2-.23c.06.23.09.47.17.7a9,9,0,0,0,.53,1.45,1.89,1.89,0,0,0,2,1.12,2.2,2.2,0,0,0,1.79-1.79,3.81,3.81,0,0,0-1.35-3.62c-1.37-1.34-2.8-2.62-4.12-4a6.73,6.73,0,0,1-1.62-7.06,4.83,4.83,0,0,1,4.65-3.37c2.25-.06,4.11.6,5.17,2.7a17.72,17.72,0,0,1,.83,2.49l-3.41.63c-.11-.42-.19-.81-.32-1.19a1.89,1.89,0,0,0-2.07-1.47,2,2,0,0,0-1.58,1.93,3.74,3.74,0,0,0,.82,2.92,34.63,34.63,0,0,0,2.92,2.89,10.46,10.46,0,0,1,3.62,5.7,5.36,5.36,0,0,1-5.35,6.54A5.74,5.74,0,0,1,324.31,428.26Z" transform="translate(-268.26 -347.75)"/><path class="cls-1" d="M268.3,407.89v-3.72A45.48,45.48,0,0,0,281,407.89Z" transform="translate(-268.26 -347.75)"/><path class="cls-2" d="M274.89,444.34v-7c.66,0,1.28,0,1.9,0a1.55,1.55,0,0,1,1.38,1.51c0,1.32,0,2.65,0,4a1.56,1.56,0,0,1-1.53,1.51C276.08,444.35,275.52,444.34,274.89,444.34Zm1.11-1.11c1,.06,1.15-.06,1.15-1s0-2,0-3-.28-1-1.15-.8Z" transform="translate(-268.26 -347.75)"/><path class="cls-2" d="M322,437.31c.6,0,1.17,0,1.73,0a1.57,1.57,0,0,1,1.53,1.51q0,2,0,4a1.57,1.57,0,0,1-1.58,1.52c-.54,0-1.08,0-1.68,0Zm1.09,5.88c1,.14,1.14,0,1.14-.89s0-2,0-3-.19-1-1.14-.88Z" transform="translate(-268.26 -347.75)"/><path class="cls-2" d="M336.19,444.3h-1.12l-.26-1.53h-1l-.31,1.54h-1.09l1.17-7H335Zm-1.85-4.8-.12,0-.31,2.08h.74Z" transform="translate(-268.26 -347.75)"/><path class="cls-2" d="M304.52,442.31l.8-4.95h1.13l-1.25,6.94h-1.49l-1.23-7h1.1l.83,5Z" transform="translate(-268.26 -347.75)"/><path class="cls-2" d="M285.44,444.28v-6.94h3v1h-1.84v1.89h1.32v1.07h-1.31v1.9h1.84v1Z" transform="translate(-268.26 -347.75)"/><path class="cls-2" d="M313.73,437.34h1v7h-1Z" transform="translate(-268.26 -347.75)"/></svg>