<svg id="Capa_1" data-name="Capa 1" xmlns="http://www.w3.org/2000/svg" xmlns:xlink="http://www.w3.org/1999/xlink" viewBox="0 0 21.24 21.24"><defs><style>.cls-1{fill:url(#Degradado_sin_nombre_14);}.cls-2{fill:#fff;}</style><linearGradient id="Degradado_sin_nombre_14" y1="10.62" x2="21.24" y2="10.62" gradientUnits="userSpaceOnUse"><stop offset="0.07" stop-color="#5d9aa0"/><stop offset="0.22" stop-color="#578f97"/><stop offset="0.48" stop-color="#457180"/><stop offset="0.83" stop-color="#29415a"/><stop offset="1" stop-color="#1a2745"/></linearGradient></defs><title>BOTON PAUSA OnV</title><circle class="cls-1" cx="10.62" cy="10.62" r="10.62"/><path class="cls-2" d="M181.89,393.43v4.43c0,.29-.11.39-.39.39h-1.83c-.26,0-.38-.11-.38-.37V389c0-.26.11-.37.37-.37h1.87c.25,0,.36.12.36.37Zm-2,0v4.1c0,.1,0,.13.12.13h1.12c.08,0,.12,0,.12-.11v-8.22c0-.11,0-.12-.13-.12h-1.08c-.12,0-.16,0-.16.15C179.91,390.7,179.91,392.05,179.91,393.41Z" transform="translate(-171.64 -382.8)"/><path class="cls-2" d="M182.63,393.41V389c0-.29.09-.39.38-.39h1.84c.26,0,.37.12.37.38v8.91c0,.27-.11.38-.38.38H183c-.25,0-.36-.11-.36-.36Zm.61,0v4.07c0,.13,0,.15.15.15h1.1c.09,0,.12,0,.12-.12q0-4.11,0-8.22c0-.09,0-.11-.12-.11h-1.12c-.11,0-.13,0-.13.14Z" transform="translate(-171.64 -382.8)"/></svg>