<svg id="Capa_1" data-name="Capa 1" xmlns="http://www.w3.org/2000/svg" xmlns:xlink="http://www.w3.org/1999/xlink" viewBox="0 0 21.24 21.24"><defs><style>.cls-1{fill:url(#Degradado_sin_nombre_14);}.cls-2{fill:#fff;}</style><linearGradient id="Degradado_sin_nombre_14" y1="10.62" x2="21.24" y2="10.62" gradientUnits="userSpaceOnUse"><stop offset="0.07" stop-color="#5d9aa0"/><stop offset="0.22" stop-color="#578f97"/><stop offset="0.48" stop-color="#457180"/><stop offset="0.83" stop-color="#29415a"/><stop offset="1" stop-color="#1a2745"/></linearGradient></defs><title>BOTON PLAY OnV</title><circle class="cls-1" cx="10.62" cy="10.62" r="10.62"/><path class="cls-2" d="M149.87,393.41v-4.5a.32.32,0,0,1,.15-.33.32.32,0,0,1,.37,0l3.37,2.31,3.22,2.19c.28.2.28.43,0,.63l-6.6,4.49a.31.31,0,0,1-.45-.06.4.4,0,0,1-.06-.26Zm6.45,0-5.81-4v7.94Z" transform="translate(-142.91 -382.8)"/><path class="cls-2" d="M151.83,391.13a.27.27,0,0,1,.17.06l2.69,1.83a.31.31,0,0,1,.14.39.32.32,0,0,1-.33.2.26.26,0,0,1-.15-.07c-.89-.6-1.78-1.2-2.66-1.81a.31.31,0,0,1,.14-.6Z" transform="translate(-142.91 -382.8)"/></svg>